<svg width="12" height="12" viewBox="0 0 12 12" fill="none" xmlns="http://www.w3.org/2000/svg">
<path d="M6.16012 0.142237C6.1376 -0.0474123 5.8624 -0.0474123 5.83988 0.142237L5.6511 1.73322C5.40734 3.78761 3.78761 5.40734 1.73324 5.6511L0.142254 5.83988C-0.0474186 5.8624 -0.0474186 6.1376 0.142254 6.16012L1.73324 6.3489C3.78761 6.59266 5.40734 8.21239 5.6511 10.2668L5.83988 11.8577C5.8624 12.0474 6.1376 12.0474 6.16012 11.8577L6.3489 10.2668C6.59266 8.21239 8.21239 6.59266 10.2668 6.3489L11.8578 6.16012C12.0474 6.1376 12.0474 5.8624 11.8578 5.83988L10.2668 5.6511C8.21239 5.40734 6.59266 3.78761 6.3489 1.73322L6.16012 0.142237Z" fill="#FFFCFA"/>
</svg>
