<svg width="105" height="131" viewBox="0 0 105 131" fill="none" xmlns="http://www.w3.org/2000/svg">
<path d="M101.348 116.778C102.327 117.363 103.16 118.164 103.783 119.12C104.406 120.076 104.803 121.161 104.943 122.293C105.083 123.426 104.963 124.575 104.592 125.654C104.221 126.733 103.609 127.712 102.802 128.519C101.994 129.325 101.014 129.937 99.9348 130.307C98.8556 130.677 97.7062 130.796 96.5741 130.655C95.442 130.514 94.357 130.116 93.4018 129.492C92.4466 128.868 91.6464 128.035 91.0621 127.055C90.3974 128.166 89.4559 129.087 88.3293 129.726C87.2028 130.364 85.9298 130.7 84.6346 130.7C83.3395 130.7 82.0665 130.364 80.9399 129.726C79.8134 129.087 78.8718 128.166 78.2072 127.055C77.5425 128.166 76.6009 129.087 75.4744 129.726C74.3478 130.364 73.0748 130.7 71.7797 130.7C70.4846 130.7 69.2115 130.364 68.085 129.726C66.9584 129.087 66.0169 128.166 65.3522 127.055C64.6875 128.166 63.746 129.087 62.6194 129.726C61.4929 130.364 60.2199 130.7 58.9247 130.7C57.6296 130.7 56.3566 130.364 55.2301 129.726C54.1035 129.087 53.1619 128.166 52.4973 127.055C51.8326 128.166 50.891 129.087 49.7645 129.726C48.6379 130.364 47.3649 130.7 46.0698 130.7C44.7746 130.7 43.5016 130.364 42.3751 129.726C41.2486 129.087 40.307 128.166 39.6423 127.055C38.9789 128.166 38.0382 129.087 36.9124 129.726C35.7865 130.365 34.514 130.701 33.2194 130.701C31.9248 130.701 30.6523 130.365 29.5264 129.726C28.4006 129.087 27.4599 128.166 26.7965 127.055C26.1318 128.166 25.1902 129.087 24.0637 129.726C22.9372 130.364 21.6642 130.7 20.369 130.7C19.0739 130.7 17.8009 130.364 16.6743 129.726C15.5478 129.087 14.6062 128.166 13.9415 127.055C13.3565 128.033 12.5562 128.865 11.6014 129.487C10.6466 130.11 9.56241 130.506 8.43133 130.647C7.30026 130.787 6.15203 130.668 5.07391 130.298C3.9958 129.929 3.01618 129.318 2.20953 128.513C1.40287 127.707 0.790406 126.729 0.418687 125.651C0.0469682 124.574 -0.0742156 123.426 0.0643364 122.295C0.202888 121.163 0.597533 120.078 1.21828 119.123C1.83902 118.167 2.66952 117.365 3.64666 116.778C2.53507 116.113 1.61486 115.172 0.975889 114.045C0.33692 112.919 0.00102871 111.646 0.00102871 110.351C0.00102871 109.055 0.33692 107.782 0.975889 106.656C1.61486 105.529 2.53507 104.588 3.64666 103.923C2.53521 103.257 1.61527 102.315 0.976528 101.188C0.337791 100.06 0.00205743 98.7868 0.00205743 97.4911C0.00205743 96.1955 0.337791 94.922 0.976528 93.7947C1.61527 92.6674 2.53521 91.725 3.64666 91.0591C2.53507 90.3944 1.61486 89.4529 0.975889 88.3263C0.33692 87.1998 0.00102871 85.9268 0.00102871 84.6316C0.00102871 83.3365 0.33692 82.0635 0.975889 80.9369C1.61486 79.8104 2.53507 78.8688 3.64666 78.2041C2.53493 77.5407 1.61445 76.6 0.975249 75.4742C0.336047 74.3483 0 73.0759 0 71.7812C0 70.4866 0.336047 69.2141 0.975249 68.0883C1.61445 66.9624 2.53493 66.0218 3.64666 65.3583C2.53507 64.6936 1.61486 63.7521 0.975889 62.6255C0.33692 61.499 0.00102871 60.226 0.00102871 58.9308C0.00102871 57.6357 0.33692 56.3627 0.975889 55.2362C1.61486 54.1096 2.53507 53.168 3.64666 52.5034C2.53521 51.8375 1.61527 50.895 0.976528 49.7678C0.337791 48.6405 0.00205743 47.367 0.00205743 46.0713C0.00205743 44.7757 0.337791 43.5022 0.976528 42.3749C1.61527 41.2477 2.53521 40.3052 3.64666 39.6393C2.53507 38.9747 1.61486 38.0331 0.975889 36.9065C0.33692 35.78 0.00102871 34.507 0.00102871 33.2118C0.00102871 31.9167 0.33692 30.6437 0.975889 29.5171C1.61486 28.3906 2.53507 27.449 3.64666 26.7843C2.53507 26.1197 1.61486 25.1781 0.975889 24.0516C0.33692 22.925 0.00102871 21.652 0.00102871 20.3569C0.00102871 19.0617 0.33692 17.7887 0.975889 16.6622C1.61486 15.5356 2.53507 14.5941 3.64666 13.9294C2.67127 13.3419 1.84248 12.54 1.2232 11.5845C0.603912 10.629 0.210383 9.54497 0.0724688 8.4147C-0.0654458 7.28443 0.0558835 6.13759 0.427236 5.0612C0.798589 3.9848 1.41021 3.00711 2.21571 2.20232C3.02122 1.39753 3.99944 0.786757 5.07617 0.416357C6.15289 0.0459573 7.29982 -0.0743509 8.42997 0.0645644C9.56012 0.20348 10.6438 0.597984 11.5988 1.21812C12.5537 1.83825 13.3549 2.66772 13.9415 3.64363C14.6079 2.53426 15.5501 1.61626 16.6764 0.978925C17.8028 0.341593 19.0749 0.0066227 20.369 0.0066227C21.6632 0.0066227 22.9352 0.341593 24.0616 0.978925C25.1879 1.61626 26.1301 2.53426 26.7965 3.64363C27.4617 2.53412 28.4029 1.61585 29.5286 0.978286C30.6542 0.340724 31.9258 0.00562179 33.2194 0.00562179C34.513 0.00562179 35.7846 0.340724 36.9102 0.978286C38.0359 1.61585 38.9771 2.53412 39.6423 3.64363C40.3087 2.53426 41.2509 1.61626 42.3772 0.978925C43.5035 0.341593 44.7756 0.0066227 46.0698 0.0066227C47.3639 0.0066227 48.636 0.341593 49.7624 0.978925C50.8887 1.61626 51.8309 2.53426 52.4973 3.64363C53.1637 2.53426 54.1059 1.61626 55.2322 0.978925C56.3585 0.341593 57.6306 0.0066227 58.9247 0.0066227C60.2189 0.0066227 61.491 0.341593 62.6173 0.978925C63.7436 1.61626 64.6858 2.53426 65.3522 3.64363C66.0186 2.53426 66.9608 1.61626 68.0871 0.978925C69.2134 0.341593 70.4855 0.0066227 71.7797 0.0066227C73.0738 0.0066227 74.3459 0.341593 75.4723 0.978925C76.5986 1.61626 77.5408 2.53426 78.2072 3.64363C78.8736 2.53426 79.8157 1.61626 80.9421 0.978925C82.0684 0.341593 83.3405 0.0066227 84.6346 0.0066227C85.9288 0.0066227 87.2009 0.341593 88.3272 0.978925C89.4535 1.61626 90.3957 2.53426 91.0621 3.64363C91.648 2.66598 92.4491 1.83476 93.4044 1.21317C94.3598 0.591575 95.4443 0.195973 96.5755 0.0564181C97.7067 -0.083137 98.8548 0.0370296 99.9326 0.407794C101.01 0.778558 101.989 1.39017 102.795 2.19612C103.601 3.00206 104.213 3.98113 104.584 5.05892C104.954 6.1367 105.075 7.28483 104.935 8.41603C104.796 9.54723 104.4 10.6317 103.778 11.5871C103.157 12.5424 102.326 13.3435 101.348 13.9294C102.457 14.5958 103.375 15.538 104.013 16.6643C104.65 17.7906 104.985 19.0627 104.985 20.3569C104.985 21.651 104.65 22.9231 104.013 24.0494C103.375 25.1758 102.457 26.118 101.348 26.7843C102.457 27.4507 103.375 28.3929 104.013 29.5193C104.65 30.6456 104.985 31.9177 104.985 33.2118C104.985 34.506 104.65 35.7781 104.013 36.9044C103.375 38.0307 102.457 38.9729 101.348 39.6393C102.457 40.3069 103.375 41.25 104.012 42.377C104.649 43.5041 104.984 44.7767 104.984 46.0713C104.984 47.366 104.649 48.6386 104.012 49.7656C103.375 50.8927 102.457 51.8358 101.348 52.5034C102.457 53.1698 103.375 54.1119 104.013 55.2383C104.65 56.3646 104.985 57.6367 104.985 58.9308C104.985 60.225 104.65 61.4971 104.013 62.6234C103.375 63.7497 102.457 64.6919 101.348 65.3583C102.457 66.0235 103.376 66.9648 104.013 68.0904C104.651 69.216 104.986 70.4876 104.986 71.7812C104.986 73.0749 104.651 74.3465 104.013 75.4721C103.376 76.5977 102.457 77.5389 101.348 78.2041C102.457 78.8705 103.375 79.8127 104.013 80.939C104.65 82.0654 104.985 83.3375 104.985 84.6316C104.985 85.9258 104.65 87.1979 104.013 88.3242C103.375 89.4505 102.457 90.3927 101.348 91.0591C102.457 91.7267 103.375 92.6698 104.012 93.7968C104.649 94.9238 104.984 96.1965 104.984 97.4911C104.984 98.7858 104.649 100.058 104.012 101.185C103.375 102.312 102.457 103.256 101.348 103.923C102.457 104.59 103.375 105.532 104.013 106.658C104.65 107.784 104.985 109.056 104.985 110.351C104.985 111.645 104.65 112.917 104.013 114.043C103.375 115.169 102.457 116.112 101.348 116.778Z" fill="#965C40"/>
</svg>
